With: Mel Gibson, Ray Winstone en Danny Huston

Thomas Craven is een rechercheur, wiens dochter vlak voor zijn huis is vermoord. Men gaat ervan uit dat hijzelf het doelwit was, maar als Craven in het verleden van zijn dochter duikt, blijkt dat ze een gevaarlijke doofpotaffaire heeft ontdekt . Daarbovenop ontdekt hij dat er afspraken zijn tussen het bedrijf waar ze werkte en de overheid, waarbij ze iemand inhuren om het bewijs te vernietigen.

As homicide detective Thomas Craven investigates the death of his activist daughter, he uncovers not only her secret life, but a corporate cover-up and government collusion that attracts an agent tasked with cleaning up the evidence. 

------------------ Dutch Friends ------------------
You can find my Friends at: http://www.Film-Test.nl 
------ They got my dutchs subs ---- and more ------

General:

Complete name                    : Edge Of Darkness\Edge Of Darkness.avi
Format                           : AVI
Format/Info                      : Audio Video Interleave
File size                        : 1.38 GiB
Duration                         : 1h 51mn
Overall bit rate                 : 1 776 Kbps

Video:

Format                           : MPEG-4 Visual
Format profile                   : Simple@L3
Format settings, BVOP            : No
Format settings, QPel            : No
Format settings, GMC             : No warppoints
Format settings, Matrix          : Default (H.263)
Codec ID                         : XVID
Codec ID/Hint                    : XviD
Duration                         : 1h 51mn
Bit rate                         : 1 382 Kbps
Width                            : 720 pixels
Height                           : 304 pixels
Display aspect ratio             : 2.35:1
Frame rate                       : 25.000 fps
Color space                      : YUV
Chroma subsampling               : 4:2:0
Bit depth                        : 8 bits
Scan type                        : Progressive
Bits/(Pixel*Frame)               : 0.252
Stream size                      : 1.08 GiB (78%)
Writing library                  : XviD 1.1.2 (UTC 2006-11-01)

Audio:

Format                           : AC-3
Format/Info                      : Audio Coding 3
Mode extension                   : CM (complete main)
Codec ID                         : 2000
Duration                         : 1h 51mn
Bit rate mode                    : Constant
Bit rate                         : 384 Kbps
Channel(s)                       : 6 channels
Channel positions                : Front: L C R, Side: L R, LFE
Sampling rate                    : 48.0 KHz
Bit depth                        : 16 bits
Stream size                      : 307 MiB (22%)
Alignment                        : Aligned on interleaves
Interleave, duration             : 32 ms (0.80 video frame)
